<?xml version="1.0" encoding="iso-8859-1"?>
<!-- Uploaded to: SVG Repo, www.svgrepo.com, Generator: SVG Repo Mixer Tools -->
<svg version="1.1" id="Layer_1" xmlns="http://www.w3.org/2000/svg" xmlns:xlink="http://www.w3.org/1999/xlink" 
	 viewBox="0 0 512 512" xml:space="preserve">
<rect y="57.332" width="512" height="397.336"/>
<circle style="fill:#E21B1B;" cx="44.192" cy="89.38" r="8.928"/>
<g style="opacity:0.7;">
	<circle style="fill:#FFFFFF;" cx="70.968" cy="89.38" r="8.928"/>
</g>
<g>
	<circle style="fill:#666666;" cx="97.736" cy="89.38" r="8.928"/>
	<polygon style="fill:#666666;" points="443.52,105.06 155.96,105.06 175.08,73.716 462.656,73.716 	"/>
</g>
<g>
	<path style="fill:#FFFFFF;" d="M195.2,82.396l1.856,7.128c0.408,1.56,0.8,3.008,1.048,4.456h0.096c0.312-1.416,0.8-2.92,1.24-4.424
		l2.296-7.16h2.144l2.168,7.008c0.52,1.672,0.928,3.16,1.248,4.576h0.088c0.28-1.536,0.64-3.048,1.08-4.544l2.008-7.04h2.52
		l-4.52,14.016h-2.312l-2.144-6.688c-0.488-1.6-0.896-2.952-1.248-4.616h-0.056c-0.336,1.568-0.76,3.12-1.28,4.64l-2.264,6.664
		h-2.312l-4.224-14.016H195.2z"/>
	<path style="fill:#FFFFFF;" d="M216.856,82.396l1.856,7.128c0.408,1.56,0.8,3.008,1.048,4.456h0.088
		c0.32-1.416,0.8-2.92,1.248-4.424l2.28-7.16h2.144l2.176,7.008c0.52,1.672,0.928,3.16,1.24,4.576h0.096
		c0.272-1.536,0.632-3.056,1.08-4.544l2.008-7.04h2.52l-4.52,14.016h-2.328l-2.144-6.688c-0.496-1.512-0.912-3.056-1.24-4.616
		h-0.064c-0.328,1.568-0.752,3.12-1.272,4.64l-2.264,6.664h-2.328l-4.232-14.016H216.856z"/>
	<path style="fill:#FFFFFF;" d="M238.488,82.396l1.856,7.128c0.408,1.56,0.8,3.008,1.048,4.456h0.088
		c0.32-1.416,0.8-2.92,1.248-4.424l2.28-7.16h2.144l2.176,7.008c0.52,1.672,0.928,3.16,1.24,4.576h0.096
		c0.272-1.536,0.632-3.056,1.08-4.544l2.008-7.04h2.52l-4.52,14.016h-2.328l-2.152-6.688c-0.496-1.512-0.912-3.056-1.24-4.616
		h-0.064c-0.328,1.568-0.752,3.12-1.272,4.64l-2.264,6.664h-2.328l-4.232-14.016H238.488z"/>
</g>
<g>
	<polygon style="fill:#666666;" points="0,423.58 82.856,423.58 113.944,454.66 0,454.66 	"/>
	<polygon style="fill:#666666;" points="512,423.58 429.144,423.58 398.056,454.66 512,454.66 	"/>
</g>
<g>
	<path style="fill:#FFFFFF;" d="M122.784,210.212l8.464,32.528c1.84,7.136,3.56,13.744,4.76,20.368h0.4
		c1.456-6.488,3.56-13.36,5.68-20.232l10.448-32.664h9.784l9.92,32c2.4,7.664,4.232,14.4,5.688,20.896h0.4
		c1.24-7.016,2.872-13.96,4.888-20.8l9.12-32.136h11.512l-20.632,64h-10.584l-9.784-30.544c-2.256-6.912-4.152-13.928-5.688-21.032
		h-0.264c-1.528,7.16-3.472,14.224-5.816,21.16l-10.312,30.4h-10.584l-19.304-64L122.784,210.212z"/>
	<path style="fill:#FFFFFF;" d="M221.68,210.212l8.464,32.528c1.84,7.136,3.56,13.744,4.76,20.368h0.4
		c1.456-6.488,3.56-13.36,5.68-20.232l10.448-32.664h9.784l9.92,32c2.4,7.664,4.232,14.4,5.688,20.896h0.4
		c1.24-7.016,2.872-13.96,4.888-20.8l9.12-32.136h11.512l-20.632,64H271.52l-9.784-30.544c-2.256-6.912-4.152-13.928-5.688-21.032
		h-0.264c-1.528,7.16-3.472,14.224-5.816,21.16l-10.312,30.4h-10.584l-19.304-64L221.68,210.212z"/>
	<path style="fill:#FFFFFF;" d="M320.568,210.212l8.464,32.528c1.84,7.136,3.56,13.744,4.76,20.368h0.4
		c1.456-6.488,3.56-13.36,5.68-20.232l10.448-32.664h9.784l9.92,32c2.4,7.664,4.232,14.4,5.688,20.896h0.4
		c1.24-7.016,2.872-13.96,4.888-20.8l9.12-32.136h11.48l-20.632,64H370.4l-9.784-30.544c-2.256-6.912-4.152-13.928-5.688-21.032
		h-0.264c-1.528,7.16-3.472,14.224-5.816,21.16l-10.312,30.4H328l-19.304-64L320.568,210.212z"/>
	
		<rect x="334.919" y="352.92" transform="matrix(0.7071 -0.7071 0.7071 0.7071 -166.894 355.9863)" style="fill:#FFFFFF;" width="22.696" height="53.063"/>
	<polygon style="fill:#FFFFFF;" points="302.608,385.604 292.32,326.364 351.552,336.66 	"/>
</g>
<path style="fill:#E21B1B;" d="M438.112,186.212c5.592,0.016,10.128,4.552,10.144,10.144v91.72
	c-0.016,5.592-4.552,10.128-10.144,10.144H74.4c-5.592-0.016-10.128-4.552-10.144-10.144v-91.72
	c0.016-5.592,4.552-10.128,10.144-10.144H438.112 M438.112,178.212H74.4c-10.016,0.016-18.128,8.128-18.144,18.144v91.72
	c0.016,10.016,8.128,18.12,18.144,18.136h363.712c10.016-0.016,18.128-8.128,18.144-18.144v-91.712
	C456.24,186.34,448.128,178.22,438.112,178.212z"/>
</svg>